<svg viewBox="0 0 506 210" fill="none" xmlns="http://www.w3.org/2000/svg">
<path d="M25.284 204.624C32.928 207.858 41.454 209.622 50.862 209.622C62.622 209.622 72.618 207.27 80.556 203.154C88.494 198.744 94.668 192.864 98.784 185.22C98.784 192.57 99.372 199.626 100.548 205.8H135.534V204.918C132.006 196.98 130.242 188.454 130.242 179.34V103.782C130.242 87.906 125.244 75.852 114.954 67.62C104.958 59.388 90.258 55.272 71.148 55.272C50.274 55.272 34.398 59.094 23.226 66.738C12.054 74.676 5.88 87.024 4.998 104.076L39.102 108.486C39.102 98.784 41.748 91.728 46.452 87.612C51.156 83.496 58.506 81.438 68.796 81.438C74.97 81.438 79.968 82.026 83.79 83.202C87.612 84.672 90.552 86.73 92.61 89.376C94.374 92.022 95.55 95.256 96.138 98.49C96.726 101.724 97.02 106.134 97.02 112.014L52.92 119.952C42.63 122.01 33.516 124.656 25.872 127.596C18.228 130.83 12.054 135.24 7.35 141.414C2.352 147.588 0 155.82 0 165.522C0 175.224 2.058 183.456 6.762 189.924C11.466 196.686 17.64 201.39 25.284 204.624ZM87.024 175.224C80.262 181.104 70.56 183.75 58.212 183.75C51.744 183.75 46.158 181.986 42.042 179.046C37.926 175.812 35.868 171.402 35.868 165.522C35.868 159.348 37.632 154.644 41.454 151.704C45.276 148.764 51.156 146.412 58.8 144.648L97.02 136.71V150.234C97.02 160.818 93.786 169.05 87.024 175.224Z" fill="#FEF7F6"/>
<path d="M143.812 0V205.8H178.504V0H143.812Z" fill="#FEF7F6"/>
<path d="M193.574 58.8V205.8H228.266V58.8H193.574ZM193.574 6.23601V43.868H228.266V6.23601H193.574Z" fill="#FEF7F6"/>
<path d="M302.999 204.624C310.643 207.858 319.169 209.622 328.577 209.622C340.337 209.622 350.333 207.27 358.271 203.154C366.209 198.744 372.383 192.864 376.499 185.22C376.499 192.57 377.087 199.626 378.263 205.8H413.249V204.918C409.721 196.98 407.957 188.454 407.957 179.34V103.782C407.957 87.906 402.959 75.852 392.669 67.62C382.673 59.388 367.973 55.272 348.863 55.272C327.989 55.272 312.113 59.094 300.941 66.738C289.769 74.676 283.595 87.024 282.713 104.076L316.817 108.486C316.817 98.784 319.463 91.728 324.167 87.612C328.871 83.496 336.221 81.438 346.511 81.438C352.685 81.438 357.683 82.026 361.505 83.202C365.327 84.672 368.267 86.73 370.325 89.376C372.089 92.022 373.265 95.256 373.853 98.49C374.441 101.724 374.735 106.134 374.735 112.014L330.635 119.952C320.345 122.01 311.231 124.656 303.587 127.596C295.943 130.83 289.769 135.24 285.065 141.414C280.067 147.588 277.715 155.82 277.715 165.522C277.715 175.224 279.773 183.456 284.477 189.924C289.181 196.686 295.355 201.39 302.999 204.624ZM364.739 175.224C357.977 181.104 348.275 183.75 335.927 183.75C329.459 183.75 323.873 181.986 319.757 179.046C315.641 175.812 313.583 171.402 313.583 165.522C313.583 159.348 315.347 154.644 319.169 151.704C322.991 148.764 328.871 146.412 336.515 144.648L374.735 136.71V150.234C374.735 160.818 371.501 169.05 364.739 175.224Z" fill="#FEF7F6"/>
<path d="M421.527 0V205.8H456.219V0H421.527Z" fill="#FEF7F6"/>
<path d="M471.289 58.8V205.8H505.981V58.8H471.289ZM471.289 6.23601V43.868H505.981V6.23601H471.289Z" fill="#FEF7F6"/>
</svg>
