<svg xmlns="http://www.w3.org/2000/svg" viewBox="0 0 1002 211" width="1002" height="211">
	<style>
		tspan { white-space:pre }
	</style>
	<path id="Art Directed " fill="#808080" aria-label="Art Directed"  d="M127.55 146L139.25 146L91.25 41L80.3 41L32.3 146L43.85 146L56.45 117.95L114.95 117.95ZM60.5 108.95L85.7 52.55L110.9 108.95ZM164.6 82.55L164.6 67.1L154.4 67.1L154.4 146L165.05 146L165.05 105.8C165.05 87.2 175.1 76.7 191.6 76.7C192.35 76.7 193.25 76.85 194.15 76.85L194.15 66.5C179.6 66.5 169.55 72.05 164.6 82.55ZM254.6 133.55C251.6 136.25 247.25 137.6 242.9 137.6C234.05 137.6 229.25 132.5 229.25 123.2L229.25 76.1L253.25 76.1L253.25 67.1L229.25 67.1L229.25 49.85L218.6 49.85L218.6 67.1L204.5 67.1L204.5 76.1L218.6 76.1L218.6 123.8C218.6 138.35 226.85 146.75 241.7 146.75C247.85 146.75 254.15 144.95 258.35 141.2ZM319.25 146L362 146C395.6 146 418.25 124.4 418.25 93.5C418.25 62.6 395.6 41 362 41L319.25 41ZM330.35 136.4L330.35 50.6L361.4 50.6C389.3 50.6 407.3 68.3 407.3 93.5C407.3 118.7 389.3 136.4 361.4 136.4ZM446.3 49.85C450.8 49.85 454.1 46.4 454.1 42.05C454.1 38 450.65 34.7 446.3 34.7C441.95 34.7 438.5 38.15 438.5 42.2C438.5 46.4 441.95 49.85 446.3 49.85ZM440.9 146L451.55 146L451.55 67.1L440.9 67.1ZM491.45 82.55L491.45 67.1L481.25 67.1L481.25 146L491.9 146L491.9 105.8C491.9 87.2 501.95 76.7 518.45 76.7C519.2 76.7 520.1 76.85 521 76.85L521 66.5C506.45 66.5 496.4 72.05 491.45 82.55ZM608.3 106.55C608.3 82.85 592.25 66.5 570.05 66.5C547.85 66.5 531.5 83.15 531.5 106.55C531.5 129.95 548.3 146.75 572.9 146.75C585.35 146.75 596.3 142.25 603.35 133.85L597.35 126.95C591.35 133.85 582.8 137.3 573.2 137.3C555.95 137.3 543.35 126.35 542.15 109.85L608.15 109.85C608.15 108.65 608.3 107.45 608.3 106.55ZM570.05 75.65C585.5 75.65 596.75 86.45 598.1 101.9L542.15 101.9C543.5 86.45 554.75 75.65 570.05 75.65ZM662.75 146.75C676.1 146.75 687.35 141.35 693.65 131.15L685.7 125.75C680.3 133.7 671.9 137.3 662.75 137.3C645.5 137.3 632.9 125.15 632.9 106.55C632.9 88.1 645.5 75.8 662.75 75.8C671.9 75.8 680.3 79.55 685.7 87.5L693.65 82.1C687.35 71.75 676.1 66.5 662.75 66.5C639.2 66.5 622.1 83 622.1 106.55C622.1 130.1 639.2 146.75 662.75 146.75ZM753.2 133.55C750.2 136.25 745.85 137.6 741.5 137.6C732.65 137.6 727.85 132.5 727.85 123.2L727.85 76.1L751.85 76.1L751.85 67.1L727.85 67.1L727.85 49.85L717.2 49.85L717.2 67.1L703.1 67.1L703.1 76.1L717.2 76.1L717.2 123.8C717.2 138.35 725.45 146.75 740.3 146.75C746.45 146.75 752.75 144.95 756.95 141.2ZM842.3 106.55C842.3 82.85 826.25 66.5 804.05 66.5C781.85 66.5 765.5 83.15 765.5 106.55C765.5 129.95 782.3 146.75 806.9 146.75C819.35 146.75 830.3 142.25 837.35 133.85L831.35 126.95C825.35 133.85 816.8 137.3 807.2 137.3C789.95 137.3 777.35 126.35 776.15 109.85L842.15 109.85C842.15 108.65 842.3 107.45 842.3 106.55ZM804.05 75.65C819.5 75.65 830.75 86.45 832.1 101.9L776.15 101.9C777.5 86.45 788.75 75.65 804.05 75.65ZM925.4 34.7L925.4 82.1C918.8 71.9 908 66.5 895.4 66.5C872.9 66.5 856.1 82.7 856.1 106.55C856.1 130.4 872.9 146.75 895.4 146.75C908.45 146.75 919.4 141.05 925.85 130.4L925.85 146L936.05 146L936.05 34.7ZM896.3 137.3C879.5 137.3 866.9 125 866.9 106.55C866.9 88.1 879.5 75.8 896.3 75.8C912.95 75.8 925.55 88.1 925.55 106.55C925.55 125 912.95 137.3 896.3 137.3Z" />
</svg>